<?xml version="1.0" encoding="UTF-8" standalone="no"?>
<!DOCTYPE svg PUBLIC "-//W3C//DTD SVG 1.1//EN"
 "http://www.w3.org/Graphics/SVG/1.1/DTD/svg11.dtd">
<!-- Generated by graphviz version 2.43.0 (0)
 -->
<!-- Title: G Pages: 1 -->
<svg width="426pt" height="44pt"
 viewBox="0.00 0.00 425.99 44.00" xmlns="http://www.w3.org/2000/svg" xmlns:xlink="http://www.w3.org/1999/xlink">
<g id="graph0" class="graph" transform="scale(1 1) rotate(0) translate(4 40)">
<title>G</title>
<polygon fill="white" stroke="transparent" points="-4,4 -4,-40 421.99,-40 421.99,4 -4,4"/>
<!-- X -->
<g id="node1" class="node">
<title>X</title>
<ellipse fill="none" stroke="black" cx="27" cy="-18" rx="27" ry="18"/>
<text text-anchor="middle" x="27" y="-14.3" font-family="Times,serif" font-size="14.00">X</text>
</g>
<!-- X@Ŵ, &#160;&#160;&#160;bias=False -->
<g id="node2" class="node">
<title>X@Ŵ, &#160;&#160;&#160;bias=False</title>
<ellipse fill="none" stroke="black" cx="201.49" cy="-18" rx="84.49" ry="18"/>
<text text-anchor="middle" x="201.49" y="-14.3" font-family="Times,serif" font-size="14.00">X@Ŵ, &#160;&#160;&#160;bias=False</text>
</g>
<!-- X&#45;&gt;X@Ŵ, &#160;&#160;&#160;bias=False -->
<g id="edge1" class="edge">
<title>X&#45;&gt;X@Ŵ, &#160;&#160;&#160;bias=False</title>
<path fill="none" stroke="black" d="M54.2,-18C68.56,-18 87.34,-18 106.63,-18"/>
<polygon fill="black" stroke="black" points="106.75,-21.5 116.75,-18 106.75,-14.5 106.75,-21.5"/>
<text text-anchor="middle" x="85.5" y="-21.8" font-family="Times,serif" font-size="14.00">@Ŵ</text>
</g>
<!-- ŷ -->
<g id="node3" class="node">
<title>ŷ</title>
<ellipse fill="none" stroke="black" cx="390.99" cy="-18" rx="27" ry="18"/>
<text text-anchor="middle" x="390.99" y="-14.3" font-family="Times,serif" font-size="14.00">ŷ</text>
</g>
<!-- X@Ŵ, &#160;&#160;&#160;bias=False&#45;&gt;ŷ -->
<g id="edge2" class="edge">
<title>X@Ŵ, &#160;&#160;&#160;bias=False&#45;&gt;ŷ</title>
<path fill="none" stroke="black" d="M286.09,-18C309.82,-18 334.43,-18 353.74,-18"/>
<polygon fill="black" stroke="black" points="353.88,-21.5 363.88,-18 353.88,-14.5 353.88,-21.5"/>
<text text-anchor="middle" x="324.99" y="-21.8" font-family="Times,serif" font-size="14.00">identity</text>
</g>
</g>
</svg>
