<?xml version="1.0" encoding="UTF-8" standalone="no"?>
<!DOCTYPE svg PUBLIC "-//W3C//DTD SVG 1.1//EN"
 "http://www.w3.org/Graphics/SVG/1.1/DTD/svg11.dtd">
<!-- Generated by graphviz version 2.43.0 (0)
 -->
<!-- Title: G Pages: 1 -->
<svg width="462pt" height="44pt"
 viewBox="0.00 0.00 461.98 44.00" xmlns="http://www.w3.org/2000/svg" xmlns:xlink="http://www.w3.org/1999/xlink">
<g id="graph0" class="graph" transform="scale(1 1) rotate(0) translate(4 40)">
<title>G</title>
<polygon fill="white" stroke="transparent" points="-4,4 -4,-40 457.98,-40 457.98,4 -4,4"/>
<!-- x -->
<g id="node1" class="node">
<title>x</title>
<ellipse fill="none" stroke="black" cx="27" cy="-18" rx="27" ry="18"/>
<text text-anchor="middle" x="27" y="-14.3" font-family="Times,serif" font-size="14.00">x</text>
</g>
<!-- x*β̂₁, &#160;&#160;&#160;bias=True -->
<g id="node2" class="node">
<title>x*β̂₁, &#160;&#160;&#160;bias=True</title>
<ellipse fill="none" stroke="black" cx="223.99" cy="-18" rx="90.98" ry="18"/>
<text text-anchor="middle" x="223.99" y="-14.3" font-family="Times,serif" font-size="14.00">x*β̂₁, &#160;&#160;&#160;bias=True</text>
</g>
<!-- x&#45;&gt;x*β̂₁, &#160;&#160;&#160;bias=True -->
<g id="edge1" class="edge">
<title>x&#45;&gt;x*β̂₁, &#160;&#160;&#160;bias=True</title>
<path fill="none" stroke="black" d="M54.3,-18C72.28,-18 97.38,-18 122.73,-18"/>
<polygon fill="black" stroke="black" points="122.82,-21.5 132.82,-18 122.82,-14.5 122.82,-21.5"/>
<text text-anchor="middle" x="93.5" y="-21.8" font-family="Times,serif" font-size="14.00">*β̂₁</text>
</g>
<!-- ŷ -->
<g id="node3" class="node">
<title>ŷ</title>
<ellipse fill="none" stroke="black" cx="426.98" cy="-18" rx="27" ry="18"/>
<text text-anchor="middle" x="426.98" y="-14.3" font-family="Times,serif" font-size="14.00">ŷ</text>
</g>
<!-- x*β̂₁, &#160;&#160;&#160;bias=True&#45;&gt;ŷ -->
<g id="edge2" class="edge">
<title>x*β̂₁, &#160;&#160;&#160;bias=True&#45;&gt;ŷ</title>
<path fill="none" stroke="black" d="M315.2,-18C341.62,-18 369.01,-18 389.94,-18"/>
<polygon fill="black" stroke="black" points="389.96,-21.5 399.96,-18 389.96,-14.5 389.96,-21.5"/>
<text text-anchor="middle" x="357.48" y="-21.8" font-family="Times,serif" font-size="14.00">indentity</text>
</g>
</g>
</svg>
