<?xml version="1.0" encoding="UTF-8" standalone="no"?>
<!DOCTYPE svg PUBLIC "-//W3C//DTD SVG 1.1//EN"
 "http://www.w3.org/Graphics/SVG/1.1/DTD/svg11.dtd">
<!-- Generated by graphviz version 2.43.0 (0)
 -->
<!-- Title: G Pages: 1 -->
<svg width="546pt" height="435pt"
 viewBox="0.00 0.00 546.38 435.00" xmlns="http://www.w3.org/2000/svg" xmlns:xlink="http://www.w3.org/1999/xlink">
<g id="graph0" class="graph" transform="scale(1 1) rotate(0) translate(4 431)">
<title>G</title>
<polygon fill="white" stroke="transparent" points="-4,4 -4,-431 542.38,-431 542.38,4 -4,4"/>
<!-- 1 -->
<g id="node1" class="node">
<title>1</title>
<ellipse fill="none" stroke="black" cx="27" cy="-72" rx="27" ry="18"/>
<text text-anchor="middle" x="27" y="-68.3" font-family="Times,serif" font-size="14.00">1</text>
</g>
<!-- β̂₀ + xₙ*β̂₁, &#160;&#160;&#160;bias=False -->
<g id="node2" class="node">
<title>β̂₀ + xₙ*β̂₁, &#160;&#160;&#160;bias=False</title>
<ellipse fill="none" stroke="black" cx="271.19" cy="-58" rx="135.38" ry="18"/>
<text text-anchor="middle" x="271.19" y="-54.3" font-family="Times,serif" font-size="14.00">β̂₀ + xₙ*β̂₁, &#160;&#160;&#160;bias=False</text>
</g>
<!-- 1&#45;&gt;β̂₀ + xₙ*β̂₁, &#160;&#160;&#160;bias=False -->
<g id="edge1" class="edge">
<title>1&#45;&gt;β̂₀ + xₙ*β̂₁, &#160;&#160;&#160;bias=False</title>
<path fill="none" stroke="black" d="M53.92,-70.5C74.51,-69.31 105.02,-67.55 136.67,-65.72"/>
<polygon fill="black" stroke="black" points="137.2,-69.19 146.98,-65.12 136.79,-62.21 137.2,-69.19"/>
<text text-anchor="middle" x="95" y="-73.8" font-family="Times,serif" font-size="14.00">* β̂₀</text>
</g>
<!-- ŷₙ -->
<g id="node4" class="node">
<title>ŷₙ</title>
<ellipse fill="none" stroke="black" cx="511.38" cy="-58" rx="27" ry="18"/>
<text text-anchor="middle" x="511.38" y="-54.3" font-family="Times,serif" font-size="14.00">ŷₙ</text>
</g>
<!-- β̂₀ + xₙ*β̂₁, &#160;&#160;&#160;bias=False&#45;&gt;ŷₙ -->
<g id="edge3" class="edge">
<title>β̂₀ + xₙ*β̂₁, &#160;&#160;&#160;bias=False&#45;&gt;ŷₙ</title>
<path fill="none" stroke="black" d="M406.6,-58C431.41,-58 455.32,-58 473.93,-58"/>
<polygon fill="black" stroke="black" points="473.96,-61.5 483.96,-58 473.96,-54.5 473.96,-61.5"/>
<text text-anchor="middle" x="445.38" y="-61.8" font-family="Times,serif" font-size="14.00">identity</text>
</g>
<!-- xₙ -->
<g id="node3" class="node">
<title>xₙ</title>
<ellipse fill="none" stroke="black" cx="27" cy="-18" rx="27" ry="18"/>
<text text-anchor="middle" x="27" y="-14.3" font-family="Times,serif" font-size="14.00">xₙ</text>
</g>
<!-- xₙ&#45;&gt;β̂₀ + xₙ*β̂₁, &#160;&#160;&#160;bias=False -->
<g id="edge2" class="edge">
<title>xₙ&#45;&gt;β̂₀ + xₙ*β̂₁, &#160;&#160;&#160;bias=False</title>
<path fill="none" stroke="black" d="M53.46,-22.21C82.48,-27 131.61,-35.11 175.76,-42.4"/>
<polygon fill="black" stroke="black" points="175.25,-45.87 185.69,-44.04 176.39,-38.96 175.25,-45.87"/>
<text text-anchor="middle" x="95" y="-36.8" font-family="Times,serif" font-size="14.00">* β̂₁</text>
</g>
<!-- . -->
<g id="node5" class="node">
<title>.</title>
<ellipse fill="none" stroke="black" cx="27" cy="-193" rx="27" ry="18"/>
<text text-anchor="middle" x="27" y="-189.3" font-family="Times,serif" font-size="14.00">.</text>
</g>
<!-- .................................... -->
<g id="node6" class="node">
<title>....................................</title>
<ellipse fill="none" stroke="black" cx="271.19" cy="-139" rx="98.58" ry="18"/>
<text text-anchor="middle" x="271.19" y="-135.3" font-family="Times,serif" font-size="14.00">....................................</text>
</g>
<!-- .&#45;&gt;.................................... -->
<g id="edge4" class="edge">
<title>.&#45;&gt;....................................</title>
<path fill="none" stroke="black" d="M53.01,-187.42C86.93,-179.86 148.92,-166.04 198.02,-155.09"/>
<polygon fill="black" stroke="black" points="198.97,-158.47 207.97,-152.87 197.44,-151.63 198.97,-158.47"/>
<text text-anchor="middle" x="95" y="-185.8" font-family="Times,serif" font-size="14.00">* β̂₀</text>
</g>
<!-- ... -->
<g id="node8" class="node">
<title>...</title>
<ellipse fill="none" stroke="black" cx="511.38" cy="-139" rx="27" ry="18"/>
<text text-anchor="middle" x="511.38" y="-135.3" font-family="Times,serif" font-size="14.00">...</text>
</g>
<!-- ....................................&#45;&gt;... -->
<g id="edge6" class="edge">
<title>....................................&#45;&gt;...</title>
<path fill="none" stroke="black" d="M370.1,-139C406.96,-139 446.62,-139 474.34,-139"/>
<polygon fill="black" stroke="black" points="474.34,-142.5 484.34,-139 474.34,-135.5 474.34,-142.5"/>
<text text-anchor="middle" x="445.38" y="-142.8" font-family="Times,serif" font-size="14.00"> </text>
</g>
<!-- .. -->
<g id="node7" class="node">
<title>..</title>
<ellipse fill="none" stroke="black" cx="27" cy="-139" rx="27" ry="18"/>
<text text-anchor="middle" x="27" y="-135.3" font-family="Times,serif" font-size="14.00">..</text>
</g>
<!-- ..&#45;&gt;.................................... -->
<g id="edge5" class="edge">
<title>..&#45;&gt;....................................</title>
<path fill="none" stroke="black" d="M54.38,-139C80.54,-139 122.39,-139 162.3,-139"/>
<polygon fill="black" stroke="black" points="162.4,-142.5 172.4,-139 162.4,-135.5 162.4,-142.5"/>
<text text-anchor="middle" x="95" y="-142.8" font-family="Times,serif" font-size="14.00">* β̂₁</text>
</g>
<!-- 1  -->
<g id="node9" class="node">
<title>1 </title>
<ellipse fill="none" stroke="black" cx="27" cy="-301" rx="27" ry="18"/>
<text text-anchor="middle" x="27" y="-297.3" font-family="Times,serif" font-size="14.00">1 </text>
</g>
<!-- β̂₀ + x₂*β̂₁, &#160;&#160;&#160;bias=False -->
<g id="node10" class="node">
<title>β̂₀ + x₂*β̂₁, &#160;&#160;&#160;bias=False</title>
<ellipse fill="none" stroke="black" cx="271.19" cy="-274" rx="135.38" ry="18"/>
<text text-anchor="middle" x="271.19" y="-270.3" font-family="Times,serif" font-size="14.00">β̂₀ + x₂*β̂₁, &#160;&#160;&#160;bias=False</text>
</g>
<!-- 1 &#45;&gt;β̂₀ + x₂*β̂₁, &#160;&#160;&#160;bias=False -->
<g id="edge7" class="edge">
<title>1 &#45;&gt;β̂₀ + x₂*β̂₁, &#160;&#160;&#160;bias=False</title>
<path fill="none" stroke="black" d="M53.92,-298.11C78.84,-295.33 118.3,-290.93 156.72,-286.65"/>
<polygon fill="black" stroke="black" points="157.44,-290.09 166.99,-285.5 156.66,-283.13 157.44,-290.09"/>
<text text-anchor="middle" x="95" y="-298.8" font-family="Times,serif" font-size="14.00">* β̂₀</text>
</g>
<!-- ŷ₂ -->
<g id="node12" class="node">
<title>ŷ₂</title>
<ellipse fill="none" stroke="black" cx="511.38" cy="-274" rx="27" ry="18"/>
<text text-anchor="middle" x="511.38" y="-270.3" font-family="Times,serif" font-size="14.00">ŷ₂</text>
</g>
<!-- β̂₀ + x₂*β̂₁, &#160;&#160;&#160;bias=False&#45;&gt;ŷ₂ -->
<g id="edge9" class="edge">
<title>β̂₀ + x₂*β̂₁, &#160;&#160;&#160;bias=False&#45;&gt;ŷ₂</title>
<path fill="none" stroke="black" d="M406.6,-274C431.41,-274 455.32,-274 473.93,-274"/>
<polygon fill="black" stroke="black" points="473.96,-277.5 483.96,-274 473.96,-270.5 473.96,-277.5"/>
<text text-anchor="middle" x="445.38" y="-277.8" font-family="Times,serif" font-size="14.00">identity</text>
</g>
<!-- x₂ -->
<g id="node11" class="node">
<title>x₂</title>
<ellipse fill="none" stroke="black" cx="27" cy="-247" rx="27" ry="18"/>
<text text-anchor="middle" x="27" y="-243.3" font-family="Times,serif" font-size="14.00">x₂</text>
</g>
<!-- x₂&#45;&gt;β̂₀ + x₂*β̂₁, &#160;&#160;&#160;bias=False -->
<g id="edge8" class="edge">
<title>x₂&#45;&gt;β̂₀ + x₂*β̂₁, &#160;&#160;&#160;bias=False</title>
<path fill="none" stroke="black" d="M53.92,-249.89C78.84,-252.67 118.3,-257.07 156.72,-261.35"/>
<polygon fill="black" stroke="black" points="156.66,-264.87 166.99,-262.5 157.44,-257.91 156.66,-264.87"/>
<text text-anchor="middle" x="95" y="-259.8" font-family="Times,serif" font-size="14.00">* β̂₁</text>
</g>
<!-- 1 &#160; -->
<g id="node13" class="node">
<title>1 &#160;</title>
<ellipse fill="none" stroke="black" cx="27" cy="-409" rx="27" ry="18"/>
<text text-anchor="middle" x="27" y="-405.3" font-family="Times,serif" font-size="14.00">1 &#160;</text>
</g>
<!-- β̂₀ + x₁*β̂₁, &#160;&#160;&#160;bias=False -->
<g id="node14" class="node">
<title>β̂₀ + x₁*β̂₁, &#160;&#160;&#160;bias=False</title>
<ellipse fill="none" stroke="black" cx="271.19" cy="-382" rx="135.38" ry="18"/>
<text text-anchor="middle" x="271.19" y="-378.3" font-family="Times,serif" font-size="14.00">β̂₀ + x₁*β̂₁, &#160;&#160;&#160;bias=False</text>
</g>
<!-- 1 &#160;&#45;&gt;β̂₀ + x₁*β̂₁, &#160;&#160;&#160;bias=False -->
<g id="edge10" class="edge">
<title>1 &#160;&#45;&gt;β̂₀ + x₁*β̂₁, &#160;&#160;&#160;bias=False</title>
<path fill="none" stroke="black" d="M53.92,-406.11C78.84,-403.33 118.3,-398.93 156.72,-394.65"/>
<polygon fill="black" stroke="black" points="157.44,-398.09 166.99,-393.5 156.66,-391.13 157.44,-398.09"/>
<text text-anchor="middle" x="95" y="-406.8" font-family="Times,serif" font-size="14.00">* β̂₀</text>
</g>
<!-- ŷ₁ -->
<g id="node16" class="node">
<title>ŷ₁</title>
<ellipse fill="none" stroke="black" cx="511.38" cy="-382" rx="27" ry="18"/>
<text text-anchor="middle" x="511.38" y="-378.3" font-family="Times,serif" font-size="14.00">ŷ₁</text>
</g>
<!-- β̂₀ + x₁*β̂₁, &#160;&#160;&#160;bias=False&#45;&gt;ŷ₁ -->
<g id="edge12" class="edge">
<title>β̂₀ + x₁*β̂₁, &#160;&#160;&#160;bias=False&#45;&gt;ŷ₁</title>
<path fill="none" stroke="black" d="M406.6,-382C431.41,-382 455.32,-382 473.93,-382"/>
<polygon fill="black" stroke="black" points="473.96,-385.5 483.96,-382 473.96,-378.5 473.96,-385.5"/>
<text text-anchor="middle" x="445.38" y="-385.8" font-family="Times,serif" font-size="14.00">identity</text>
</g>
<!-- x₁ -->
<g id="node15" class="node">
<title>x₁</title>
<ellipse fill="none" stroke="black" cx="27" cy="-355" rx="27" ry="18"/>
<text text-anchor="middle" x="27" y="-351.3" font-family="Times,serif" font-size="14.00">x₁</text>
</g>
<!-- x₁&#45;&gt;β̂₀ + x₁*β̂₁, &#160;&#160;&#160;bias=False -->
<g id="edge11" class="edge">
<title>x₁&#45;&gt;β̂₀ + x₁*β̂₁, &#160;&#160;&#160;bias=False</title>
<path fill="none" stroke="black" d="M53.92,-357.89C78.84,-360.67 118.3,-365.07 156.72,-369.35"/>
<polygon fill="black" stroke="black" points="156.66,-372.87 166.99,-370.5 157.44,-365.91 156.66,-372.87"/>
<text text-anchor="middle" x="95" y="-367.8" font-family="Times,serif" font-size="14.00">* β̂₁</text>
</g>
</g>
</svg>
