<?xml version="1.0" encoding="UTF-8" standalone="no"?>
<!DOCTYPE svg PUBLIC "-//W3C//DTD SVG 1.1//EN"
 "http://www.w3.org/Graphics/SVG/1.1/DTD/svg11.dtd">
<!-- Generated by graphviz version 2.43.0 (0)
 -->
<!-- Title: G Pages: 1 -->
<svg width="546pt" height="98pt"
 viewBox="0.00 0.00 546.38 98.00" xmlns="http://www.w3.org/2000/svg" xmlns:xlink="http://www.w3.org/1999/xlink">
<g id="graph0" class="graph" transform="scale(1 1) rotate(0) translate(4 94)">
<title>G</title>
<polygon fill="white" stroke="transparent" points="-4,4 -4,-94 542.38,-94 542.38,4 -4,4"/>
<!-- 1 -->
<g id="node1" class="node">
<title>1</title>
<ellipse fill="none" stroke="black" cx="27" cy="-72" rx="27" ry="18"/>
<text text-anchor="middle" x="27" y="-68.3" font-family="Times,serif" font-size="14.00">1</text>
</g>
<!-- β̂₀ + xᵢ*β̂₁, &#160;&#160;&#160;bias=False -->
<g id="node2" class="node">
<title>β̂₀ + xᵢ*β̂₁, &#160;&#160;&#160;bias=False</title>
<ellipse fill="none" stroke="black" cx="271.19" cy="-45" rx="135.38" ry="18"/>
<text text-anchor="middle" x="271.19" y="-41.3" font-family="Times,serif" font-size="14.00">β̂₀ + xᵢ*β̂₁, &#160;&#160;&#160;bias=False</text>
</g>
<!-- 1&#45;&gt;β̂₀ + xᵢ*β̂₁, &#160;&#160;&#160;bias=False -->
<g id="edge1" class="edge">
<title>1&#45;&gt;β̂₀ + xᵢ*β̂₁, &#160;&#160;&#160;bias=False</title>
<path fill="none" stroke="black" d="M53.92,-69.11C78.84,-66.33 118.3,-61.93 156.72,-57.65"/>
<polygon fill="black" stroke="black" points="157.44,-61.09 166.99,-56.5 156.66,-54.13 157.44,-61.09"/>
<text text-anchor="middle" x="95" y="-69.8" font-family="Times,serif" font-size="14.00">* β̂₀</text>
</g>
<!-- ŷᵢ -->
<g id="node4" class="node">
<title>ŷᵢ</title>
<ellipse fill="none" stroke="black" cx="511.38" cy="-45" rx="27" ry="18"/>
<text text-anchor="middle" x="511.38" y="-41.3" font-family="Times,serif" font-size="14.00">ŷᵢ</text>
</g>
<!-- β̂₀ + xᵢ*β̂₁, &#160;&#160;&#160;bias=False&#45;&gt;ŷᵢ -->
<g id="edge3" class="edge">
<title>β̂₀ + xᵢ*β̂₁, &#160;&#160;&#160;bias=False&#45;&gt;ŷᵢ</title>
<path fill="none" stroke="black" d="M406.6,-45C431.41,-45 455.32,-45 473.93,-45"/>
<polygon fill="black" stroke="black" points="473.96,-48.5 483.96,-45 473.96,-41.5 473.96,-48.5"/>
<text text-anchor="middle" x="445.38" y="-48.8" font-family="Times,serif" font-size="14.00">identity</text>
</g>
<!-- xᵢ -->
<g id="node3" class="node">
<title>xᵢ</title>
<ellipse fill="none" stroke="black" cx="27" cy="-18" rx="27" ry="18"/>
<text text-anchor="middle" x="27" y="-14.3" font-family="Times,serif" font-size="14.00">xᵢ</text>
</g>
<!-- xᵢ&#45;&gt;β̂₀ + xᵢ*β̂₁, &#160;&#160;&#160;bias=False -->
<g id="edge2" class="edge">
<title>xᵢ&#45;&gt;β̂₀ + xᵢ*β̂₁, &#160;&#160;&#160;bias=False</title>
<path fill="none" stroke="black" d="M53.92,-20.89C78.84,-23.67 118.3,-28.07 156.72,-32.35"/>
<polygon fill="black" stroke="black" points="156.66,-35.87 166.99,-33.5 157.44,-28.91 156.66,-35.87"/>
<text text-anchor="middle" x="95" y="-30.8" font-family="Times,serif" font-size="14.00">* β̂₁</text>
</g>
</g>
</svg>
