<?xml version="1.0" encoding="UTF-8" standalone="no"?>
<!DOCTYPE svg PUBLIC "-//W3C//DTD SVG 1.1//EN"
 "http://www.w3.org/Graphics/SVG/1.1/DTD/svg11.dtd">
<!-- Generated by graphviz version 2.43.0 (0)
 -->
<!-- Title: G Pages: 1 -->
<svg width="449pt" height="44pt"
 viewBox="0.00 0.00 449.08 44.00" xmlns="http://www.w3.org/2000/svg" xmlns:xlink="http://www.w3.org/1999/xlink">
<g id="graph0" class="graph" transform="scale(1 1) rotate(0) translate(4 40)">
<title>G</title>
<polygon fill="white" stroke="transparent" points="-4,4 -4,-40 445.08,-40 445.08,4 -4,4"/>
<!-- X -->
<g id="node1" class="node">
<title>X</title>
<ellipse fill="none" stroke="black" cx="27" cy="-18" rx="27" ry="18"/>
<text text-anchor="middle" x="27" y="-14.3" font-family="Times,serif" font-size="14.00">X</text>
</g>
<!-- X@β̂, &#160;&#160;&#160;bias=False -->
<g id="node2" class="node">
<title>X@β̂, &#160;&#160;&#160;bias=False</title>
<ellipse fill="none" stroke="black" cx="213.04" cy="-18" rx="89.08" ry="18"/>
<text text-anchor="middle" x="213.04" y="-14.3" font-family="Times,serif" font-size="14.00">X@β̂, &#160;&#160;&#160;bias=False</text>
</g>
<!-- X&#45;&gt;X@β̂, &#160;&#160;&#160;bias=False -->
<g id="edge1" class="edge">
<title>X&#45;&gt;X@β̂, &#160;&#160;&#160;bias=False</title>
<path fill="none" stroke="black" d="M54.37,-18C70.31,-18 91.75,-18 113.66,-18"/>
<polygon fill="black" stroke="black" points="113.75,-21.5 123.75,-18 113.75,-14.5 113.75,-21.5"/>
<text text-anchor="middle" x="89" y="-21.8" font-family="Times,serif" font-size="14.00">@β̂</text>
</g>
<!-- ŷ -->
<g id="node3" class="node">
<title>ŷ</title>
<ellipse fill="none" stroke="black" cx="414.08" cy="-18" rx="27" ry="18"/>
<text text-anchor="middle" x="414.08" y="-14.3" font-family="Times,serif" font-size="14.00">ŷ</text>
</g>
<!-- X@β̂, &#160;&#160;&#160;bias=False&#45;&gt;ŷ -->
<g id="edge2" class="edge">
<title>X@β̂, &#160;&#160;&#160;bias=False&#45;&gt;ŷ</title>
<path fill="none" stroke="black" d="M302.21,-18C328.54,-18 355.95,-18 376.93,-18"/>
<polygon fill="black" stroke="black" points="376.97,-21.5 386.97,-18 376.97,-14.5 376.97,-21.5"/>
<text text-anchor="middle" x="344.58" y="-21.8" font-family="Times,serif" font-size="14.00">indentity</text>
</g>
</g>
</svg>
